<svg id="Слой_1" data-name="Слой 1" xmlns="http://www.w3.org/2000/svg" xmlns:xlink="http://www.w3.org/1999/xlink" viewBox="0 0 1170 233"><defs><style>.cls-1{mix-blend-mode:screen;fill:url(#radial-gradient);}.cls-2{fill:url(#radial-gradient-2);}.cls-3{fill:url(#radial-gradient-3);}.cls-4{fill:none;}.cls-5{fill:#070707;}.cls-6{clip-path:url(#clip-path);}.cls-7{clip-path:url(#clip-path-2);}.cls-8{opacity:0.5;fill:url(#Безымянный_градиент_303);}.cls-9{mask:url(#mask);}.cls-10{opacity:0.2;}.cls-11{fill:url(#Безымянный_градиент_87);}.cls-12{mask:url(#mask-2);}.cls-13{fill:url(#Безымянный_градиент_122);}.cls-14{opacity:0.25;fill:url(#Безымянный_градиент_93);}.cls-15{mask:url(#mask-3);}.cls-16{opacity:0.16;}.cls-17{fill:url(#Безымянный_градиент_103);}</style><radialGradient id="radial-gradient" cx="1298.08" cy="-48.48" r="54.02" gradientTransform="matrix(0.23, 0.97, -0.97, 0.23, 659.04, -1197.05)" gradientUnits="userSpaceOnUse"><stop offset="0" stop-color="#fff"/><stop offset="1"/></radialGradient><radialGradient id="radial-gradient-2" cx="844.46" cy="173.82" r="64.7" gradientTransform="translate(999.05 -747.78) rotate(80.17)" xlink:href="#radial-gradient"/><radialGradient id="radial-gradient-3" cx="1611.71" cy="54.25" r="58.23" gradientTransform="translate(632.63 -1437.79) rotate(74.73)" xlink:href="#radial-gradient"/><clipPath id="clip-path"><path class="cls-4" d="M974.93,168.84a12.78,12.78,0,0,1-10-5.75L942.3,123.84a12.75,12.75,0,0,1,0-11.51L965,73.08a12.76,12.76,0,0,1,10-5.76h45.32a12.78,12.78,0,0,1,10,5.76l22.66,39.25a12.75,12.75,0,0,1,0,11.51l-22.66,39.25a12.79,12.79,0,0,1-10,5.75Z"/></clipPath><clipPath id="clip-path-2"><rect class="cls-4" x="927.21" y="48.01" width="137.55" height="137.55"/></clipPath><linearGradient id="Безымянный_градиент_303" x1="819.75" y1="155.14" x2="1203.41" y2="155.14" gradientUnits="userSpaceOnUse"><stop offset="0" stop-color="#282828"/><stop offset="1" stop-color="#0e0e0e"/></linearGradient><mask id="mask" x="831.64" y="-51.72" width="360.06" height="169.98" maskUnits="userSpaceOnUse"><circle class="cls-1" cx="1004.46" cy="55.16" r="54.02" transform="translate(547.44 951.33) rotate(-66.12)"/></mask><linearGradient id="Безымянный_градиент_87" x1="831.64" y1="33.27" x2="1191.7" y2="33.27" gradientUnits="userSpaceOnUse"><stop offset="0" stop-color="#9fa4ab"/><stop offset="1" stop-color="#b0b0a9"/></linearGradient><mask id="mask-2" x="877.95" y="-43.9" width="158.66" height="363.08" maskUnits="userSpaceOnUse"><circle class="cls-2" cx="971.9" cy="113.95" r="64.7" transform="translate(714.95 1058.17) rotate(-81.46)"/></mask><linearGradient id="Безымянный_градиент_122" x1="899.58" y1="93.77" x2="876.79" y2="177" gradientTransform="translate(38.78 -72.95) rotate(1.96)" gradientUnits="userSpaceOnUse"><stop offset="0" stop-color="#9f9c9c"/><stop offset="1" stop-color="#a7a6a6"/></linearGradient><linearGradient id="Безымянный_градиент_93" x1="1078.61" y1="53.94" x2="1061.45" y2="130.9" gradientUnits="userSpaceOnUse"><stop offset="0" stop-color="#a9a9aa"/><stop offset="1" stop-color="#b3aeae"/></linearGradient><mask id="mask-3" x="878.93" y="13.6" width="311.02" height="223.32" maskUnits="userSpaceOnUse"><circle class="cls-3" cx="1004.76" cy="131.31" r="58.23" transform="translate(201.44 748.93) rotate(-45)"/></mask><linearGradient id="Безымянный_градиент_103" x1="1253.95" y1="49.53" x2="1195.19" y2="201.67" gradientTransform="matrix(0.99, 0.15, -0.15, 0.99, -169.55, -156.65)" gradientUnits="userSpaceOnUse"><stop offset="0" stop-color="#bfbdba"/><stop offset="1" stop-color="#b8b5ae"/></linearGradient></defs><title>Black hexagon_black text_big</title><path class="cls-5" d="M12.12,168.84V19.53h60q22.53,0,34,13.87T117.66,67q0,19.71-11.38,33.37T72.15,114H35.31v54.83ZM71.72,40.76H35.31V93H70.85q11.7,0,17.77-7.69A28.7,28.7,0,0,0,94.69,67a29.84,29.84,0,0,0-5.85-18.42Q83,40.75,71.72,40.76Z"/><path class="cls-5" d="M104.09,219.77l2.17-21.45q5.85,2,15.39,2,12.14,0,17.88-7.48t5.74-19.4V19.53h23.19V173.39q0,21.68-11.38,35.33t-35.43,13.65Q115.8,222.37,104.09,219.77Z"/><path class="cls-5" d="M354.48,19.53h23.41V168.84H354.48V105.13H287.09v63.71h-23V19.53h23V84.11h67.39Z"/><path class="cls-5" d="M493.48,168.84V154.32q-4.75,7.8-14.41,12.25A46.48,46.48,0,0,1,459.46,171a50,50,0,0,1-36.3-14.74q-15.06-14.73-15.06-38.14t15.06-38a50.23,50.23,0,0,1,36.3-14.63A47.63,47.63,0,0,1,479,69.7a31.58,31.58,0,0,1,14.52,12.24V67.64h22.11v101.2ZM440.06,95.7q-9,8.56-9,22.21t9,22.54a30.1,30.1,0,0,0,22,8.89,31.09,31.09,0,0,0,22.11-8.56q9.09-8.57,9.1-22.87,0-14.07-9.43-22.42a31.83,31.83,0,0,0-21.78-8.35A30.75,30.75,0,0,0,440.06,95.7Z"/><path class="cls-5" d="M663.69,87.36q-11.06,0-17.77,7.47t-6.72,19.62v54.39H616.88V112.06Q616.67,100.59,611,94a18.43,18.43,0,0,0-14.74-6.61q-10.83,0-18.2,6.61t-7.37,20.48v54.39H548.4V67.64h22.32V82.81a26.79,26.79,0,0,1,14-13.33,45.75,45.75,0,0,1,17.88-4q23,0,31.86,20.15,11-20.15,34-20.15,18.63,0,28.82,11.7t10.19,33.38v58.29H685.15V112.5q0-11.7-5.85-18.42T663.69,87.36Z"/><path class="cls-5" d="M761.52,67.64v15a31,31,0,0,1,14-12.57,45.14,45.14,0,0,1,19.83-4.55A48.3,48.3,0,0,1,831,80.21q14.64,14.73,14.63,38.14,0,23.63-14.63,38.14T795.32,171a46.6,46.6,0,0,1-20-4.33,29.89,29.89,0,0,1-13.76-12.36V218H739.19V67.64Zm.21,51.14q0,14.08,9.21,22.43a31.07,31.07,0,0,0,21.57,8.35q13,0,21.67-8.56t8.67-22.22q0-13.86-8.78-22.75a29.11,29.11,0,0,0-21.56-8.89,30.21,30.21,0,0,0-21.78,8.67Q761.73,104.48,761.73,118.78Z"/><path class="cls-5" d="M902.47,29.28V67.64h21.45V86.06H902.47v82.78H880.15V86.06H861.94V67.64h18.21V29.28Z"/><path class="cls-5" d="M1094.43,114.45v54.39h-22.32V67.64h22.32V82.81a28.63,28.63,0,0,1,13-12.79,39.12,39.12,0,0,1,18-4.55q18.42,0,28.5,11.49T1164,109.9v58.94h-22.32V112.5q0-11.93-5.74-18.53t-15.5-6.61q-11.06,0-18.53,6.61T1094.43,114.45Z"/><g class="cls-6"><g class="cls-7"><rect x="923.49" y="64.26" width="148.21" height="107.64"/><path class="cls-8" d="M1203.41,228.76c-110.05,14.42-242.44,5.36-383.66-69.67a560.42,560.42,0,0,1,58-83.31c106,75.64,207.29,99.46,297.18,111.23A143.28,143.28,0,0,0,1203.41,228.76Z"/><g class="cls-9"><g class="cls-10"><path class="cls-11" d="M844.54-51.72c151.18,32.81,257.61,91.79,347.16,144.5-16.34,4.85-32.41,13.4-47.58,25.48C1057.73,92.78,963.19,58.76,831.64,47A473.94,473.94,0,0,1,844.54-51.72Z"/></g></g><g class="cls-12"><g class="cls-10"><path class="cls-13" d="M878.32,319.18c-2.06-149.51,4.44-270.72,16.16-363.08q54.57,51,100.11,102.43C978.1,86.17,961.87,143.06,949.26,229,923.07,259.52,899.56,289.65,878.32,319.18Z"/></g></g><path class="cls-14" d="M1043.82,5.78a858.17,858.17,0,0,1,65.27,246.42L1035.65,251a785.32,785.32,0,0,0-23.87-232.24Z"/><g class="cls-15"><g class="cls-16"><path class="cls-17" d="M1147.7,203c-97.17,71.18-221,27.93-268.77-106.2,26.13-31.65,48.29-59.53,67.38-83.17C982.82,160.8,1098.31,218.48,1190,163,1175.92,171.32,1162.16,184.68,1147.7,203Z"/></g></g></g></g></svg>